<svg xmlns="http://www.w3.org/2000/svg" width="1600" height="400" viewBox="0 0 1600 400">
  <g fill="none" stroke="#111" stroke-width="6" stroke-linecap="round">
    <line x1="120" y1="140" x2="1420" y2="140"/>
  </g>

  <g fill="#111">
    <text x="120" y="250"
          font-family="Noto Sans, Poppins, Montserrat, Arial, sans-serif"
          font-size="170"
          font-weight="300">indology.ai</text>
  </g>

  <g fill="none" stroke="#111" stroke-width="6" stroke-linecap="round" stroke-linejoin="round">
    <!-- Lotus -->
    <path d="M700 95 C680 75 675 45 700 25 C725 45 720 75 700 95"/>
    <path d="M700 95 C665 85 645 60 650 35 C680 45 695 70 700 95"/>
    <path d="M700 95 C735 85 755 60 750 35 C720 45 705 70 700 95"/>
    <line x1="655" y1="102" x2="745" y2="102"/>

    <!-- Star -->
    <path d="M1390 95 L1400 105 L1410 95 L1400 85 Z"/>
  </g>

  <circle cx="135" cy="105" r="10" fill="#111"/>
  <circle cx="1400" cy="105" r="10" fill="#111"/>
</svg>